<?xml version="1.0" standalone="no"?>
<svg viewBox="0 0 200 200" xmlns="http://www.w3.org/2000/svg">
  <path fill="#00AFB9" d="M13.5,-25.4C15.6,-19.6,14.2,-12.7,27.1,-6.1C40,0.6,67.2,7.1,75.2,16.9C83.3,26.7,72.1,39.8,61,53.2C49.9,66.6,38.7,80.3,28,73.5C17.2,66.7,6.8,39.4,-4,29.1C-14.9,18.9,-26.2,25.7,-41.8,26C-57.4,26.3,-77.4,20.2,-79.5,10.9C-81.6,1.7,-66,-10.6,-56.4,-23.4C-46.9,-36.1,-43.5,-49.2,-35.1,-52.2C-26.7,-55.2,-13.3,-48.1,-3.8,-42.1C5.7,-36.1,11.3,-31.3,13.5,-25.4Z" transform="translate(100 100)" />
</svg>
