<?xml version="1.0" standalone="no"?>
<svg viewBox="0 0 200 200" xmlns="http://www.w3.org/2000/svg">
  <path fill="#F07167" d="M12.6,-29C16.1,-17.3,18.7,-13.5,27.3,-8.4C35.9,-3.3,50.6,3,53.7,10.3C56.7,17.7,48.1,25.9,40.7,36.5C33.4,47.1,27.4,60,17.3,66.3C7.3,72.5,-6.9,72.1,-19.8,68.1C-32.8,64,-44.5,56.3,-44.4,44.9C-44.4,33.4,-32.7,18.2,-27.2,8.3C-21.8,-1.6,-22.6,-6.2,-27.9,-20.2C-33.1,-34.3,-42.8,-57.9,-38.8,-69.5C-34.9,-81,-17.5,-80.5,-6.5,-70.4C4.5,-60.4,9.1,-40.7,12.6,-29Z" transform="translate(100 100)" />
</svg>
