<?xml version="1.0" standalone="no"?><svg xmlns="http://www.w3.org/2000/svg" viewBox="0 0 1440 320"><path fill="#EEEEEE" fill-opacity="1" d="M0,128L30,117.3C60,107,120,85,180,64C240,43,300,21,360,48C420,75,480,149,540,154.7C600,160,660,96,720,58.7C780,21,840,11,900,21.3C960,32,1020,64,1080,96C1140,128,1200,160,1260,154.7C1320,149,1380,107,1410,85.3L1440,64L1440,320L1410,320C1380,320,1320,320,1260,320C1200,320,1140,320,1080,320C1020,320,960,320,900,320C840,320,780,320,720,320C660,320,600,320,540,320C480,320,420,320,360,320C300,320,240,320,180,320C120,320,60,320,30,320L0,320Z"></path></svg>